Coordinates
version=1
nRows=38
nColumns=12
inDegrees=yes

Units are S.I. units (second, meters, Newtons, ...)
Angles are in degrees

endheader
time	SC_y	SC_z	SC_x	AC_y	AC_z	AC_x	GH_y	GH_z	GH_yy	EL_x	PS_y
       0.0              -13.01          37.98           46.3          42.52         -14.37          -12.9          110.3          36.89          161.6          37.95          105.7
  0.008228              -13.01          37.98          46.29          42.52         -14.37          -12.9          110.2          36.89          161.5          37.96          105.7
   0.01646              -13.02          37.97          46.29          42.52         -14.37          -12.9          110.2           36.9          161.5          37.97          105.7
   0.02469              -13.02          37.97          46.28          42.53         -14.37          -12.9          110.2           36.9          161.5          37.97          105.6
   0.03291              -13.02          37.96          46.27          42.53         -14.36         -12.89          110.1           36.9          161.5          37.98          105.6
   0.04114              -13.03          37.96          46.27          42.54         -14.36         -12.89          110.1           36.9          161.4          37.99          105.6
   0.04937              -13.03          37.95          46.26          42.54         -14.36         -12.89          110.0           36.9          161.4           38.0          105.6
    0.0576              -13.04          37.94          46.25          42.55         -14.35         -12.88          110.0           36.9          161.4           38.0          105.6
   0.06583              -13.04          37.94          46.24          42.55         -14.35         -12.88          109.9          36.91          161.3          38.01          105.6
   0.07406              -13.05          37.93          46.23          42.56         -14.35         -12.88          109.9          36.91          161.3          38.02          105.6
   0.08228              -13.05          37.92          46.22          42.56         -14.34         -12.87          109.8          36.91          161.3          38.03          105.6
   0.09051              -13.06          37.91           46.2          42.57         -14.34         -12.87          109.8          36.91          161.2          38.04          105.5
   0.09874              -13.07           37.9          46.19          42.58         -14.34         -12.86          109.7          36.92          161.2          38.06          105.5
     0.107              -13.08          37.89          46.18          42.59         -14.33         -12.86          109.6          36.92          161.1          38.07          105.5
    0.1152              -13.08          37.88          46.16          42.59         -14.33         -12.85          109.6          36.92          161.1          38.08          105.5
    0.1234              -13.09          37.87          46.15           42.6         -14.32         -12.84          109.5          36.92          161.0           38.1          105.5
    0.1317               -13.1          37.85          46.13          42.61         -14.31         -12.84          109.4          36.93          161.0          38.12          105.4
    0.1399              -13.11          37.84          46.11          42.62         -14.31         -12.83          109.3          36.93          160.9          38.13          105.4
    0.1481              -13.13          37.82          46.09          42.64          -14.3         -12.82          109.2          36.94          160.8          38.15          105.4
    0.1563              -13.14          37.81          46.06          42.65         -14.29         -12.81          109.1          36.94          160.7          38.18          105.3
    0.1646              -13.15          37.79          46.04          42.66         -14.29          -12.8          109.0          36.95          160.6           38.2          105.3
    0.1728              -13.17          37.77          46.01          42.68         -14.28         -12.79          108.8          36.95          160.6          38.23          105.3
     0.181              -13.18          37.75          45.98           42.7         -14.27         -12.78          108.7          36.96          160.4          38.26          105.2
    0.1893               -13.2          37.72          45.95          42.72         -14.25         -12.76          108.5          36.96          160.3          38.29          105.2
    0.1975              -13.22          37.69          45.91          42.74         -14.24         -12.75          108.3          36.97          160.2          38.32          105.1
    0.2057              -13.25          37.66          45.87          42.76         -14.23         -12.73          108.1          36.98          160.0          38.36          105.1
    0.2139              -13.27          37.63          45.82          42.79         -14.21         -12.71          107.9          36.99          159.9          38.41          105.0
    0.2222               -13.3          37.59          45.76          42.82         -14.19         -12.69          107.6           37.0          159.7          38.46          104.9
    0.2304              -13.34          37.54           45.7          42.86         -14.17         -12.67          107.3          37.01          159.5          38.52          104.8
    0.2386              -13.37          37.49          45.63          42.89         -14.15         -12.64          107.0          37.03          159.2          38.58          104.7
    0.2469              -13.42          37.43          45.56          42.94         -14.13         -12.61          106.6          37.04          159.0          38.66          104.6
    0.2551              -13.47          37.37          45.47          42.99          -14.1         -12.58          106.1          37.06          158.7          38.74          104.5
    0.2633              -13.52          37.29          45.36          43.05         -14.06         -12.53          105.6          37.08          158.3          38.84          104.3
    0.2715              -13.59           37.2          45.24          43.12         -14.02         -12.49          105.0          37.11          157.9          38.95          104.2
    0.2798              -13.67           37.1           45.1           43.2         -13.97         -12.43          104.3          37.14          157.4          39.09          104.0
     0.288              -13.76          36.98          44.93          43.29         -13.92         -12.37          103.5          37.17          156.8          39.24          103.7
    0.2962              -13.87          36.83          44.73          43.41         -13.85         -12.29          102.5          37.21          156.1          39.43          103.4
    0.3045               -14.0          36.66           44.5          43.54         -13.77         -12.19          101.4          37.26          155.3          39.65          103.1
